<svg xmlns:dc="http://purl.org/dc/elements/1.1/" xmlns:cc="http://creativecommons.org/ns#" xmlns:rdf="http://www.w3.org/1999/02/22-rdf-syntax-ns#" xmlns:svg="http://www.w3.org/2000/svg" xmlns="http://www.w3.org/2000/svg" viewBox="0 0 280 280" fill="none"><metadata><rdf:RDF><cc:Work><dc:format>image/svg+xml</dc:format><dc:type rdf:resource="http://purl.org/dc/dcmitype/StillImage"/><dc:title>Avataaars</dc:title><dc:creator><cc:Agent><dc:title>Pablo Stanley</dc:title></cc:Agent></dc:creator><dc:source>https://avataaars.com/</dc:source><cc:license rdf:resource="https://avataaars.com/"/><dc:contributor><cc:Agent><dc:title>Florian Körner</dc:title></cc:Agent></dc:contributor></cc:Work></rdf:RDF></metadata><rect fill="transparent" width="280" height="280" x="0" y="0"/><g transform="translate(40, 36)"><path d="M100 0C69.072 0 44 25.072 44 56v6.166c-5.675.952-10 5.888-10 11.834v14c0 6.052 4.48 11.058 10.305 11.881 2.067 19.806 14.458 36.541 31.695 44.73V163h-4c-39.764 0-72 32.236-72 72v9h200v-9c0-39.764-32.236-72-72-72h-4v-18.389c17.237-8.189 29.628-24.924 31.695-44.73C161.52 99.058 166 94.052 166 88V74c0-5.946-4.325-10.882-10-11.834V56c0-30.928-25.072-56-56-56z" fill="#FD9841"/><path d="M76 144.611v8A55.79 55.79 0 00100 158a55.789 55.789 0 0024-5.389v-8A55.789 55.789 0 01100 150a55.79 55.79 0 01-24-5.389z" fill="#000" fill-opacity=".1"/></g><g transform="translate(8, 170)"><path d="M196 38.632V110H68V38.632a71.525 71.525 0 0126-8.944V74h76V29.688a71.523 71.523 0 0126 8.944z" fill="#3C4F5C"/><path d="M86 83a5 5 0 11-10 0 5 5 0 0110 0zm102 0a5 5 0 11-10 0 5 5 0 0110 0z" fill="#F4F4F4"/></g><g transform="translate(86, 134)"><path fill-rule="evenodd" clip-rule="evenodd" d="M40 29c0-7.732 6.268-14 14-14s14 6.268 14 14" fill="#000" fill-opacity=".7"/></g><g transform="translate(112, 122)"><path fill-rule="evenodd" clip-rule="evenodd" d="M16 8c0 4.418 5.373 8 12 8s12-3.582 12-8" fill="#000" fill-opacity=".16"/></g><g transform="translate(84, 90)"><path fill-rule="evenodd" clip-rule="evenodd" d="M16.16 22.447C18.007 18.648 22.164 16 26.998 16c4.816 0 8.961 2.63 10.817 6.407.552 1.122-.233 2.04-1.024 1.36-2.451-2.107-5.932-3.423-9.793-3.423-3.74 0-7.124 1.235-9.56 3.228-.891.728-1.818-.014-1.278-1.125zm58 0C76.007 18.648 80.164 16 84.998 16c4.816 0 8.961 2.63 10.817 6.407.552 1.122-.233 2.04-1.024 1.36-2.451-2.107-5.932-3.423-9.793-3.423-3.74 0-7.124 1.235-9.56 3.228-.891.728-1.818-.014-1.278-1.125z" fill="#000" fill-opacity=".6"/></g><g transform="translate(84, 82)"><path d="M15.591 14.162c4.496-6.326 14.012-9.509 23.756-6.366a2 2 0 101.228-3.807c-11.408-3.68-22.74.11-28.244 7.856a2 2 0 103.26 2.317zm80.786 6.996c-3.914-5.509-14.647-8.598-23.892-6.328a2 2 0 01-.954-3.884c10.736-2.637 23.165.94 28.107 7.895a2 2 0 11-3.26 2.317z" fill="#000" fill-opacity=".6"/></g><g transform="translate(7, 0)"><path d="M50 90.5c0 4.55 1.695 8.643 4.853 10.773.905.61 2.47.925 4.147 1.067V182a8 8 0 008 8h42v-9.389c-17.53-8.328-30.048-25.496-31.791-45.744C71.43 134.002 67 129.019 67 123v-13c0-3.491 1.49-6.633 3.87-8.826 11.539-2.619 24.1-7.536 36.472-14.679 12.131-7.004 22.502-15.237 30.479-23.743-3.427 7.908-7.576 14.836-12.449 20.783 12.675-5.523 21.306-14.403 25.892-26.639.377.922.771 1.843 1.18 2.762 10.256 23.035 27.874 39.36 45.762 44.745.513 2.11.794 4.081.794 5.597v13c0 6.019-4.431 11.002-10.209 11.867-1.743 20.248-14.26 37.416-31.791 45.744V190h18c17.673 0 32-14.327 32-32v-54.125c0-.07-.01-.162-.031-.274-.073-5.64-.279-18.873-.609-21.375C201.577 45.976 170.556 18 133 18c-36.085 0-66.137 25.828-73 60-5.523 0-10 5.596-10 12.5z" fill="#2C1B18"/><path d="M152.444 59.658c11.938 26.813 33.852 44.536 54.556 46.493V92c0-40.87-33.131-74-74-74-36.085 0-66.137 25.828-72.679 60.006A8.168 8.168 0 0060 78c-5.523 0-10 5.596-10 12.5 0 6.482 3.947 11.811 9 12.438v.155c.316-.029.634-.06.953-.093H60c.65 0 1.284-.077 1.899-.225 13.812-1.76 29.78-7.237 45.443-16.28 12.131-7.004 22.502-15.237 30.479-23.743-3.427 7.908-7.576 14.836-12.449 20.783 12.675-5.523 21.306-14.403 25.892-26.639.377.922.771 1.843 1.18 2.762z" fill="#fff" fill-opacity=".08"/></g><g transform="translate(69, 85)"><path d="M71 15.111c-11.038 0-12.63-9.084-35.33-10.37C12.985 3.717 5.815 10.45 5.776 15.11c.037 4.293-1.128 15.45 13.588 28.519 14.773 15.512 29.906 10.252 35.33 5.185C60.135 46.473 66.34 25.46 71 25.482c4.66.021 10.865 20.991 16.306 23.333 5.423 5.067 20.557 10.327 35.329-5.185 14.717-13.069 13.552-24.226 13.588-28.519-.038-4.662-7.209-11.394-29.894-10.37-22.7 1.286-24.292 10.37-35.33 10.37z" fill="#000" fill-opacity=".1"/><path d="M71 13.111c-11.038 0-12.63-9.084-35.33-10.37C12.985 1.717 5.815 8.449 5.776 13.11c.037 4.293-1.128 15.45 13.588 28.519 14.773 15.512 29.906 10.252 35.33 5.185C60.135 44.473 66.34 23.46 71 23.482c4.66.021 10.865 20.991 16.306 23.333 5.423 5.067 20.557 10.327 35.329-5.185 14.717-13.069 13.552-24.226 13.588-28.519-.038-4.662-7.209-11.394-29.894-10.37-22.7 1.286-24.292 10.37-35.33 10.37z" fill="#65C9FF"/><path d="M32.953 7.926c14.262-.284 27.557 7.897 27.176 15.555-.22 5.053-2.932 22.825-19.023 23.334-16.092.489-24.808-17.793-24.46-25.926.195-3.51 2.051-12.664 16.307-12.963zm76.094 0C94.784 7.642 81.49 15.823 81.871 23.48c.22 5.053 2.932 22.825 19.023 23.334 16.091.489 24.808-17.793 24.459-25.926-.195-3.51-2.05-12.664-16.306-12.963z" fill="#2F383B"/></g></svg>